<svg width="40" height="32" viewBox="0 0 40 32" fill="none" xmlns="http://www.w3.org/2000/svg">
  <path fill-rule="evenodd" clip-rule="evenodd" d="M2.25 5.28797C2.25 4.80913 2.66418 4.39496 3.14297 4.39496H36.857C37.3358 4.39496 37.75 4.80913 37.75 5.28797V26.64C37.75 27.1188 37.3358 27.533 36.857 27.533H3.14297C2.66418 27.533 2.25 27.1188 2.25 26.64V5.28797ZM36.857 3.27934H3.14297C1.91048 3.27934 0.909912 4.27991 0.909912 5.5124V26.64C0.909912 28.1319 2.09841 29.3204 3.59034 29.3204H36.857C38.3488 29.3204 39.5373 28.1319 39.5373 26.64V5.5124C39.5373 4.27991 38.5367 3.27934 37.3042 3.27934H36.857Z" fill="#FFE200" stroke="#FDBD39" stroke-width="0.5"/>
  <path fill-rule="evenodd" clip-rule="evenodd" d="M6.56848 2.72931C6.56848 2.31714 6.90663 1.97898 7.3188 1.97898H32.4347C32.8469 1.97898 33.185 2.31714 33.185 2.72931V25.0517C33.185 25.4638 32.8469 25.8019 32.4347 25.8019H7.3188C6.90663 25.8019 6.56848 25.4638 6.56848 25.0517V2.72931ZM32.4347 1.25366C31.5472 1.25366 30.8281 1.9728 30.8281 2.86035V25.0517C30.8281 25.9392 31.5472 26.6584 32.4347 26.6584H7.3188C8.20635 26.6584 8.92549 25.9392 8.92549 25.0517V2.86035C8.92549 1.9728 8.20635 1.25366 7.3188 1.25366H32.4347Z" fill="#FFFBF2"/>
  <path fill-rule="evenodd" clip-rule="evenodd" d="M11.7499 2.72931C11.7499 2.31714 12.0881 1.97898 12.5002 1.97898H31.5002C31.9123 1.97898 32.2505 2.31714 32.2505 2.72931V25.0517C32.2505 25.4638 31.9123 25.8019 31.5002 25.8019H12.5002C12.0881 25.8019 11.7499 25.4638 11.7499 25.0517V2.72931ZM31.5002 1.25366C30.6126 1.25366 29.8935 1.9728 29.8935 2.86035V25.0517C29.8935 25.9392 30.6126 26.6584 31.5002 26.6584H12.5002C13.3877 26.6584 14.1069 25.9392 14.1069 25.0517V2.86035C14.1069 1.9728 13.3877 1.25366 12.5002 1.25366H31.5002Z" fill="#FFFBF2"/>
</svg>
